<?xml version="1.0" encoding="UTF-8" standalone="no"?>
<svg
   width="1024"
   height="1024"
   version="1.1"
   id="svg116"
   sodipodi:docname="TLDRGames.svg"
   inkscape:version="1.3.2 (091e20e, 2023-11-25, custom)"
   inkscape:export-filename="TLDRGames.png"
   inkscape:export-xdpi="96"
   inkscape:export-ydpi="96"
   xmlns:inkscape="http://www.inkscape.org/namespaces/inkscape"
   xmlns:sodipodi="http://sodipodi.sourceforge.net/DTD/sodipodi-0.dtd"
   xmlns="http://www.w3.org/2000/svg"
   xmlns:svg="http://www.w3.org/2000/svg">
  <sodipodi:namedview
     id="namedview116"
     pagecolor="#ffffff"
     bordercolor="#000000"
     borderopacity="0.25"
     inkscape:showpageshadow="2"
     inkscape:pageopacity="0.0"
     inkscape:pagecheckerboard="0"
     inkscape:deskcolor="#d1d1d1"
     inkscape:zoom="1.1228082"
     inkscape:cx="529.47599"
     inkscape:cy="520.56975"
     inkscape:window-width="1920"
     inkscape:window-height="1009"
     inkscape:window-x="-8"
     inkscape:window-y="-8"
     inkscape:window-maximized="1"
     inkscape:current-layer="svg116" />
  <path
     fill="#04495E"
     d="M511.587 66.3332C515.534 71.6948 517.985 79.1492 520.632 85.2395Q529.782 106.232 538.386 127.454C603.703 132.664 673.378 153.052 728.331 189.266C735.737 182.756 743.409 176.583 750.983 170.275C757.927 164.492 764.714 158.522 771.947 153.097C766.564 173.049 761.31 193.118 755.392 212.916C812.771 256.953 846.975 305.658 877.558 370.526Q881.267 369.083 884.937 367.541C922.478 351.595 943.983 328.29 959.211 290.651Q959.525 291.935 959.768 293.234C966.167 327.537 954.495 375.623 940.92 407.173C935.82 419.025 929.58 430.177 922.765 441.118C918.611 447.786 914.172 454.373 909.215 460.473C906.832 463.404 903.682 466.105 901.599 469.212C901.483 469.385 901.371 469.56 901.257 469.734C902.169 480.159 903.967 490.485 904.722 500.942C907.216 535.503 905.968 569.414 901.813 603.782C910.452 604.246 919.15 603.866 927.796 603.774C936.343 603.682 944.805 603.9 953.354 603.467C932.421 627.47 913.433 653.082 892.382 676.993C914.859 703.911 938.548 730.404 959.482 758.507Q893.043 759.03 826.604 758.495C784.798 821.345 709.44 875.836 638.101 899.554Q616.443 906.7 594.263 912.009C586.38 913.875 578.003 913.69 570.524 917.109C562.609 920.725 555.315 926.797 548.17 931.754L511.522 957.01L507.754 954.387L473.259 930.583C466.94 926.182 460.507 920.814 453.573 917.481C445.493 913.598 435.031 913.199 426.28 910.962Q406.736 905.793 387.715 898.945C307.178 870.813 249.343 825.882 195.612 760.506L117.517 760.494C99.2857 760.493 81.0464 760.262 62.825 760.986C72.059 750.737 80.4074 739.741 88.9455 728.917C102.47 711.772 115.912 694.617 130.15 678.052C123.138 668.279 115.355 659.162 107.895 649.742C95.6403 634.268 83.4908 618.785 71.0086 603.487L123.391 603.503C115.321 555.005 114.913 517.145 122.945 468.65C119.677 465.418 116.775 461.769 113.983 458.123C92.402 429.948 79.7062 400.022 70.8656 365.91C67.3329 352.279 64.4219 338.719 63.852 324.589C63.387 313.06 64.8096 301.518 66.3072 290.109C66.5327 290.828 66.7675 291.529 67.0216 292.238C82.4846 335.387 108.325 355.39 148.008 374.176C175.278 306.45 215.789 255.486 272.137 209.776C264.888 190.591 257.685 171.042 251.872 151.376C266.426 164.488 283.017 176.044 298.53 188.029Q303.862 184.876 309.28 181.87Q314.697 178.865 320.195 176.01Q325.693 173.155 331.268 170.452Q336.842 167.75 342.489 165.202Q348.136 162.654 353.851 160.263Q359.566 157.871 365.345 155.639Q371.123 153.406 376.961 151.333Q382.799 149.26 388.692 147.348Q394.585 145.437 400.529 143.689Q406.472 141.941 412.461 140.357Q418.451 138.773 424.481 137.355Q430.512 135.937 436.579 134.685Q442.646 133.434 448.746 132.35Q454.846 131.266 460.973 130.351Q467.1 129.435 473.25 128.689Q479.4 127.943 485.568 127.366C494.333 107.071 501.592 86.0622 511.587 66.3332Z"
     id="path2" />
  <path
     fill="#64D0D0"
     d="M621.725 514.87C626.964 514.65 632.324 514.939 637.574 515.011L637.446 529.166C631.238 525.869 626.48 519.911 621.725 514.87Z"
     id="path3" />
  <path
     fill="#64D0D0"
     d="M323.205 642.194C328.229 643.157 333.893 642.519 338.974 642.191C338.989 643.947 338.798 645.945 339.543 647.556C329.349 648.064 318.627 649.062 308.586 650.86L308.455 645.273C313.358 644.632 318.425 643.446 323.205 642.194Z"
     id="path4" />
  <path
     fill="#F46338"
     d="M183.524 519.589C189.496 521.66 195.35 524.145 201.22 526.49C198.228 527.326 195.379 528.312 192.489 529.451Q192.322 541.04 191.946 552.625C191.747 554.991 191.85 558.949 190.223 560.703C190.097 560.613 189.958 560.54 189.845 560.434C184.977 555.878 183.84 527.301 183.524 519.589Z"
     id="path5" />
  <path
     fill="#64D0D0"
     d="M737.556 672.236C740.816 672.734 744.077 673.288 747.345 673.72L747.23 706.372C744.058 705.069 740.9 703.866 737.639 702.806L737.554 702.353C738.959 692.748 738.051 681.925 737.556 672.236Z"
     id="path6" />
  <path
     fill="#64D0D0"
     d="M744.964 251.72C747.292 254.004 749.719 256.243 751.925 258.643C752.479 266.468 754.737 280.163 752.055 287.331C746.836 284.321 741.813 280.952 736.583 277.935Q740.583 264.767 744.964 251.72Z"
     id="path7" />
  <path
     fill="#64D0D0"
     d="M397.585 638.981Q450.991 638.599 504.397 638.992C504.528 640.72 504.603 642.275 505.247 643.897C496.57 641.265 469.871 643.247 459.438 643.303C438.808 643.414 418.09 642.992 397.475 643.622L397.585 638.981Z"
     id="path8" />
  <path
     fill="#FEC185"
     d="M755.558 310.419C758.943 313.288 761.895 317.209 764.73 320.643Q770.179 327.336 775.251 334.318Q780.324 341.3 785.005 348.55Q789.687 355.8 793.963 363.296Q798.239 370.793 802.096 378.513C804.018 382.271 806.655 386.563 807.696 390.655C808.071 392.13 808.208 392.737 807.404 394.039C805.964 394.534 804.74 394.871 803.219 394.99C801.041 394.155 799.112 389.033 798.109 386.991C786.145 362.615 771.944 341.421 754.747 320.465L755.558 310.419Z"
     id="path9" />
  <path
     fill="#931D2D"
     d="M343.487 666.509L364.027 666.477L364.057 703.873C357.221 703.711 350.348 703.873 343.508 703.891L343.487 666.509Z"
     id="path10" />
  <path
     fill="#F46338"
     d="M269.531 305.464C271.301 307.349 270.55 312.774 270.515 315.25C265.183 322.008 259.591 328.695 254.597 335.703C240.492 355.495 229.819 376.589 219.738 398.601L213.865 397.11C212.808 396.606 212.617 396.668 211.949 395.639C212.3 391.66 217.124 383.809 219.129 379.982C233.478 352.593 248.661 328.404 269.531 305.464Z"
     id="path11" />
  <path
     fill="#931D2D"
     d="M388.475 666.312L410.487 666.5C410.478 679.918 410.62 693.361 410.232 706.773C403.038 705.431 395.759 704.72 388.476 704.058L388.475 666.312Z"
     id="path12" />
  <path
     fill="#931D2D"
     d="M436.512 666.509L456.991 666.473L456.996 695.533C457.007 700.616 457.499 706.353 456.673 711.336L456.371 710.43C452.508 708.85 441.274 709.142 436.447 708.941C435.938 694.827 436.545 680.636 436.512 666.509Z"
     id="path13" />
  <path
     fill="#FBF7E1"
     d="M144.648 492.751C146.889 494.5 149.389 496.029 151.751 497.619C151.059 522.258 150.458 546.549 153.294 571.101C154.423 580.875 156.578 590.325 158.151 600.01C158.378 601.41 158.81 602.337 157.967 603.515L150.233 603.506C143.692 568.659 139.528 527.987 144.648 492.751Z"
     id="path14" />
  <path
     fill="#FEC185"
     d="M878.757 491.864C880.89 498.447 880.469 505.82 880.811 512.67C881.847 533.454 881.615 553.653 879.346 574.354C878.258 584.272 876.386 594.085 875.166 603.988L868.375 604.015C867.69 603.928 868.103 604.032 867.205 603.501C866.173 598.761 869.877 587.136 870.618 581.836C871.357 576.547 871.764 571.199 872.208 565.877C873.996 544.44 872.842 522.748 871.994 501.287C873.927 497.785 876.105 494.845 878.757 491.864Z"
     id="path15" />
  <path
     fill="#FBF7E1"
     d="M108.561 621.504Q139.291 621.136 170.022 621.218C177.749 621.212 189.611 620.261 196.859 621.559C197.706 622.775 197.487 624.636 197.534 626.074L196.738 627.072C188.074 627.531 179.225 627.128 170.544 627.097L119.861 627.015C131.817 643.18 148.866 666.806 164.114 679.019L163.824 679.606C159.739 679.382 155.877 679.55 152.376 677.159C143.955 667.79 136.379 657.835 128.555 647.98C121.666 639.302 114.364 630.98 108.561 621.504Z"
     id="path16" />
  <path
     fill="#931D2D"
     d="M730.605 493.49C731.483 494.051 732.438 494.408 733.485 494.46C740.436 494.81 747.979 493.673 754.952 493.299C779.234 491.997 803.652 489.099 827.962 488.971C841.657 488.899 855.159 491.675 868.786 491.436C867.517 492.654 866.077 494.322 864.333 494.786C846.079 499.643 811.677 497.398 791.867 497.825C771.407 498.266 750.966 499.878 730.497 500.488L730.605 493.49Z"
     id="path17" />
  <path
     fill="#FBF7E1"
     d="M826.341 621.491L915.881 621.489C901.842 640.503 886.578 659.178 871.435 677.325C870.057 678.696 868.349 680.749 866.426 681.278C865.118 681.638 864.791 681.471 863.768 680.777L863.514 679.388C864.448 675.483 897.976 634.504 903.281 628.052C877.846 626.516 851.841 627.463 826.373 628.015L826.341 621.491Z"
     id="path18" />
  <path
     fill="#F46338"
     d="M164.434 502.516C173.131 502.867 181.967 504.17 190.64 505.066C216.17 507.702 241.986 511.319 267.632 512.247C263.672 513.307 259.67 514.122 255.656 514.948C239.774 518.559 223.706 521.609 207.764 524.976C191.81 519.447 178.208 512.279 164.434 502.516Z"
     id="path19" />
  <path
     fill="#931D2D"
     d="M341.388 444.37C347.712 447.416 354.092 450.196 360.503 453.044L360.059 501.945L341.429 503.549C341.167 483.83 340.752 464.085 341.388 444.37Z"
     id="path20" />
  <path
     fill="#FEC185"
     d="M261.178 166.52C267.285 170.129 286.536 203.124 291.633 210.955C298.647 221.73 306.795 231.747 312.4 243.378L312.647 243.901C307.14 247.557 299.062 250.07 296.304 256.438C291.013 245.235 287.014 233.443 282.496 221.914C275.285 203.515 267.881 185.11 261.178 166.52Z"
     id="path21" />
  <path
     fill="#1F98A5"
     d="M696.907 668.433C710.481 669.666 724.006 670.712 737.556 672.236C738.051 681.925 738.959 692.748 737.554 702.353L696.88 692.172Q696.736 680.302 696.907 668.433Z"
     id="path22" />
  <path
     fill="#FBF7E1"
     d="M328.404 199.449C376.295 173.498 421.889 159.049 475.936 152.233C474.855 155.024 473.678 157.785 472.548 160.558C438.425 164.374 403.087 173.217 371.437 186.663C357.789 192.461 344.986 199.538 331.595 205.761L328.404 199.449Z"
     id="path23" />
  <path
     fill="#FEC185"
     d="M748.29 237.696C753.843 242.064 759.556 246.36 764.837 251.054C794.857 277.736 819.982 311.291 839.723 346.128C845.871 356.979 852.106 367.82 855.965 379.735L850.451 381.243C845.891 372.364 841.979 363.197 837.146 354.442C814.314 313.084 784.251 274.066 746.819 244.943L748.29 237.696Z"
     id="path24" />
  <path
     fill="#FBF7E1"
     d="M752.27 525.077C775.958 530.268 799.147 536.083 822.533 542.474L822.504 677.655C815.759 674.762 805.542 671.639 800.567 666.051C806.207 665.603 812.174 669.538 817 672.153L816.91 605.262C817.395 597.403 816.405 589.164 816.283 581.256C816.109 570.049 816.639 558.775 816.919 547.57C797.611 541.941 777.876 535.827 757.992 532.692C755.995 530.203 754.051 527.727 752.27 525.077Z"
     id="path25" />
  <path
     fill="#931D2D"
     d="M159.403 494.67C166.981 492.939 175.433 493.114 183.187 492.745C208.175 491.557 233.313 490.866 258.233 493.603C263.766 494.211 290.912 499.405 293.648 498.884C293.247 501.978 293.505 505.377 293.501 508.51C268.192 508.333 242.595 504.142 217.426 501.619C204.065 500.28 190.651 499.427 177.323 497.77C171.438 497.038 165.065 496.447 159.403 494.67Z"
     id="path26" />
  <path
     fill="#FBF7E1"
     d="M548.17 151.871C561.309 153.986 574.368 155.546 587.418 158.269C626.663 166.459 674.766 183.331 708.461 205.313L702.052 210.206C666.832 188.636 625.146 173.656 584.842 165.132C573.834 162.804 562.506 162.176 551.547 159.781L548.17 151.871Z"
     id="path27" />
  <path
     fill="#931D2D"
     d="M714.565 244.397C717.91 240.734 721.266 233.522 724.051 229.064Q735.624 210.646 747.536 192.445C752.079 185.487 756.532 177.525 762.188 171.42C757.747 189.43 751.86 207.206 746.742 225.044C742.09 241.257 739.293 260.336 730.944 275.026C731.154 268.141 732.623 259 727.58 253.5C724.166 249.776 718.841 247.073 714.565 244.397Z"
     id="path28" />
  <path
     fill="#FFE497"
     d="M170.405 382.985C173.669 376.313 176.357 369.283 179.424 362.509C182.843 354.958 186.74 347.444 190.674 340.148C212.895 298.938 244.618 263.158 280.73 233.678C281.93 236.338 282.881 238.899 283.03 241.838C244.991 269.269 211.154 316.164 189.917 357.623C185.244 366.745 180.238 375.811 177.447 385.714L170.405 382.985Z"
     id="path29" />
  <path
     fill="#F46338"
     d="M258.157 160.708Q281.416 180.739 305.26 200.071C316.445 209.258 329.063 218.173 338.342 229.3C329.716 234.059 321.293 239.185 312.647 243.901L312.4 243.378C306.795 231.747 298.647 221.73 291.633 210.955C286.536 203.124 267.285 170.129 261.178 166.52Q259.638 163.629 258.157 160.708Z"
     id="path30" />
  <path
     fill="#F46338"
     d="M70.7631 346.459C80.7265 360.535 90.5908 374.972 103.436 386.624C132.891 413.343 173.725 427.277 210.255 441.416C229.098 448.709 247.942 456.138 266.627 463.826C256.558 465.181 155.512 425.354 139.535 418.811C131.037 415.331 122.519 411.654 114.352 407.444C102.117 401.137 93.2312 391.252 82.4992 385.379C82.3362 385.29 82.1707 385.206 82.0064 385.119C76.3969 372.867 74.7026 359.257 70.7631 346.459Z"
     id="path31" />
  <path
     fill="#FFE497"
     d="M225.392 759.651C228.21 759.676 231.038 759.869 233.854 760C243.362 769.762 252.786 779.743 262.807 788.98Q268.189 793.945 273.759 798.699Q279.328 803.452 285.077 807.987Q290.826 812.522 296.746 816.832Q302.666 821.141 308.747 825.219Q314.829 829.297 321.064 833.138Q327.298 836.978 333.677 840.574Q340.055 844.171 346.567 847.519Q353.079 850.866 359.716 853.96C371.84 859.665 384.221 865.446 397.095 869.247C403.67 872.771 409.551 877.973 415.336 882.639C344.123 861.932 272.223 817.65 225.392 759.651Z"
     id="path32" />
  <path
     fill="#F46338"
     d="M687.453 227.642C695.024 222.264 702.158 215.908 709.398 210.076Q737.893 186.937 765.846 163.147L762.188 171.42C756.532 177.525 752.079 185.487 747.536 192.445Q735.624 210.646 724.051 229.064C721.266 233.522 717.91 240.734 714.565 244.397C705.693 238.457 696.708 232.972 687.453 227.642Z"
     id="path33" />
  <path
     fill="#F46338"
     d="M864.551 501.812L864.815 502.179C854.482 512.709 842.963 520.605 830.286 528.004C803.907 519.049 777.132 513.161 749.547 509.171C742.757 508.242 735.922 507.546 729.463 505.139C739.728 504.729 749.879 505.983 760.117 505.901C775.508 505.777 790.868 504.77 806.249 504.296C825.661 503.699 845.201 503.6 864.551 501.812Z"
     id="path34" />
  <path
     fill="#931D2D"
     d="M447.484 504.456C452.017 505.312 456.848 505.117 461.444 505.118C477.465 505.119 492.167 503.2 508.006 501.69Q507.548 525.921 507.683 550.156C488.723 542.608 458.796 521.608 447.484 504.456Z"
     id="path35" />
  <path
     fill="#64D0D0"
     d="M487.832 223.136C493.685 225.233 506.645 243.114 511.219 248.859C520.491 241.259 527.148 231.126 535.89 222.942L536.456 266.25L536.497 277.26C527.778 273.065 520.354 267.482 511.162 264.015C502.843 267.622 495.037 272.862 487.432 277.753L487.421 245.526C487.365 238.175 486.595 230.387 487.832 223.136Z"
     id="path36" />
  <path
     fill="#FBF7E1"
     d="M563.123 192.692C614.166 202.092 654.296 214.393 699.421 240.646C708.071 245.678 718.916 251.507 725.67 258.877C710.449 260.353 683.585 242.823 668.819 236.063C643.819 224.615 617.689 214.716 590.835 208.642C578.946 205.953 566.694 204.736 554.89 201.96L554.396 201.84Q558.672 197.182 563.123 192.692Z"
     id="path37" />
  <path
     fill="#F46338"
     d="M791.115 758.577C793.929 757.125 797.744 757.813 800.817 758.018C769.544 798.417 714.825 839.215 668.763 861.522C647.615 871.764 626.16 879.35 603.638 885.835L623.485 872.288C634.296 869.362 645.114 863.97 655.223 859.215C707.039 834.844 751.67 799.817 791.115 758.577Z"
     id="path38" />
  <path
     fill="#1F98A5"
     d="M277.912 675.703C294.519 672.773 311.192 669.916 327.989 668.315C328.469 680.36 328.498 692.37 328.514 704.422C315.872 704.627 303.374 706.545 290.937 708.7C286.48 709.301 281.98 709.801 277.563 710.653C278.648 699.121 278.043 687.276 277.912 675.703Z"
     id="path39" />
  <path
     fill="#F46338"
     d="M954.495 343.16C951.976 354.879 948.542 375.777 942.597 385.556C942.454 385.626 942.31 385.694 942.168 385.766C936.808 388.512 931.923 393.318 927.112 397.001Q918.975 403.2 909.941 407.998C879.983 424.221 848.474 437.461 816.803 449.914C794.495 458.687 772.143 467.424 748.936 473.551C744.071 474.835 736.362 477.762 731.522 476.657C731.116 476.215 730.664 475.779 730.308 475.295C731.96 473.54 747.918 468.838 751.424 467.48C765.063 462.197 778.953 457.511 792.69 452.482Q815.573 443.958 838.255 434.912C893.759 412.836 922.303 394.243 954.495 343.16Z"
     id="path40" />
  <path
     fill="#1F98A5"
     d="M864.507 509.988C865.826 516.528 865.628 523.269 865.78 529.917Q866.123 542.882 865.577 555.84Q865.031 568.799 863.599 581.689C862.735 589.16 861.329 596.567 860.343 604.025Q851.481 603.997 842.623 603.702L841.996 603.142C840.399 598.175 841.498 569.444 841.492 562.616Q841.441 544.949 840.966 527.288C849.246 522.082 856.822 516.011 864.507 509.988Z"
     id="path41" />
  <path
     fill="#64D0D0"
     d="M757.992 532.692C777.876 535.827 797.611 541.941 816.919 547.57C816.639 558.775 816.109 570.049 816.283 581.256C816.405 589.164 817.395 597.403 816.91 605.262C816.622 603.341 816.577 601.367 816.455 599.428C801.931 595.107 784.651 588.806 769.471 587.887C774.872 581.205 781.932 575.641 789.132 571.038C778.334 558.556 767.583 546.145 757.992 532.692Z"
     id="path42" />
  <path
     fill="#1F98A5"
     d="M154.057 500.322C161.722 504.533 169.051 510.762 176.261 515.772C176.661 547.656 178.944 572.278 184.2 603.744C176.711 603.525 169.202 603.567 161.71 603.509C160.259 595.109 158.041 586.908 156.822 578.432C153.098 552.531 153.017 526.41 154.057 500.322Z"
     id="path43" />
  <path
     fill="#FBF7E1"
     d="M731.497 281.106C738.232 284.331 743.969 288.048 749.51 293.07L749.525 414.979L743.318 417.509L731.215 422.566C732.045 375.454 731.441 328.23 731.497 281.106Z"
     id="path44" />
  <path
     fill="#1F98A5"
     d="M800.567 666.051C798.685 660.193 794.868 655.567 792.083 650.175C782.345 631.32 771.01 609.238 769.471 587.887C784.651 588.806 801.931 595.107 816.455 599.428C816.577 601.367 816.622 603.341 816.91 605.262L817 672.153C812.174 669.538 806.207 665.603 800.567 666.051Z"
     id="path45" />
  <path
     fill="#931D2D"
     d="M942.597 385.556C939.424 392.791 934.232 399.153 928.965 404.967C910.665 425.165 887.955 439.27 862.71 449.121C846.939 455.275 830.489 459.664 814.192 464.166Q784.159 472.497 753.984 480.296C746.187 482.285 738.312 483.958 730.531 485.999C730.528 482.577 730.892 478.643 730.308 475.295C730.664 475.779 731.116 476.215 731.522 476.657C736.362 477.762 744.071 474.835 748.936 473.551C772.143 467.424 794.495 458.687 816.803 449.914C848.474 437.461 879.983 424.221 909.941 407.998Q918.975 403.2 927.112 397.001C931.923 393.318 936.808 388.512 942.168 385.766C942.31 385.694 942.454 385.626 942.597 385.556Z"
     id="path46" />
  <path
     fill="#1F98A5"
     d="M233.854 760C245.231 759.982 256.625 759.276 267.991 759.766C268.12 764.324 268.393 768.931 268.184 773.487C278.642 782.363 290.049 790.143 301.211 798.101L347.905 831.195C359.742 839.535 390.149 858.92 397.095 869.247C384.221 865.446 371.84 859.665 359.716 853.96Q353.079 850.866 346.567 847.519Q340.055 844.171 333.677 840.574Q327.298 836.978 321.064 833.138Q314.829 829.297 308.747 825.219Q302.666 821.142 296.746 816.832Q290.826 812.522 285.077 807.987Q279.328 803.452 273.759 798.699Q268.189 793.945 262.807 788.98C252.786 779.743 243.362 769.762 233.854 760Z"
     id="path47" />
  <path
     fill="#FBF7E1"
     d="M294.938 276.463C297.451 280.51 295.564 406.619 295.514 422.353C290.982 420.543 286.324 418.957 281.742 417.272Q278.185 416.344 274.67 415.269L274.691 296.463C281.234 289.521 287.69 282.685 294.938 276.463Z"
     id="path48" />
  <path
     fill="#FBF7E1"
     d="M393.344 514.701Q411.195 513.901 429.06 513.503L429.033 610.49C455.171 610.505 481.441 610.044 507.565 610.759C507.741 618.194 509.357 636.854 506.723 642.793L505.247 643.897C504.603 642.275 504.528 640.72 504.397 638.992L504.704 636.796C505.308 629.338 504.969 621.677 504.673 614.205C478.183 613.433 451.502 614.069 424.997 614.169L424.987 572.491C415.659 572.558 406.348 573.023 397.006 573.013L397.025 613.612C397.029 620.622 396.541 627.957 397.259 634.917L397.585 638.981L397.475 643.622C396.054 643.272 395.084 643.319 394.101 642.181C392.533 627.845 393.397 612.583 393.32 598.147Q393.046 556.424 393.344 514.701Z"
     id="path49" />
  <path
     fill="#64D0D0"
     d="M245.827 410.218C252.076 411.023 258.608 413.732 264.591 415.64C274.827 418.904 285.196 421.971 295.221 425.848C306.553 430.231 317.505 435.415 328.985 439.442C329.022 447.032 330.209 499.155 328.342 503.63C328.043 504.346 327.563 504.274 326.889 504.496C318.622 506.104 310.054 506.743 301.679 507.611C300.664 490.396 301.438 472.805 301.499 455.548C280.876 443.93 259.979 429.437 245.827 410.218Z"
     id="path50" />
  <path
     fill="#1F98A5"
     d="M754.704 757.989C766.561 758.063 779.428 756.526 791.115 758.577C751.67 799.817 707.039 834.844 655.223 859.215C645.114 863.97 634.296 869.362 623.485 872.288C628.221 865.216 647.793 852.648 655.523 846.874C665.745 839.239 674.826 830.157 685.094 822.576C701.804 810.239 719.833 799.586 736.579 787.251C750.191 777.223 752.189 774.629 754.704 757.989Z"
     id="path51" />
  <path
     fill="#64D0D0"
     d="M790.15 404.488L790.553 404.587L790.52 405.189C781.244 413.939 771.188 421.71 761.553 430.029C748.928 440.93 737.097 452.208 723.516 462.002Q723.514 484.018 723.243 506.032C715.182 504.882 706.983 504.235 698.882 503.36C697.644 503.266 696.743 503.289 695.665 502.609C694.852 495.864 695.433 488.497 695.446 481.685L695.406 443.983C716.481 435.297 736.942 425.241 757.965 416.445C768.521 412.028 779.39 408.372 790.15 404.488Z"
     id="path52" />
  <path
     fill="#F46338"
     d="M730.605 493.49L730.68 492.647C731.545 491.511 732.695 491.365 734.05 490.967C745.549 487.597 757.683 485.281 769.357 482.483L839.031 465.813C853.862 462.302 869.01 459.127 883.455 454.233C896.83 449.703 908.5 443.704 920.082 435.65C909.28 458.393 887.438 475.3 868.786 491.436C855.159 491.675 841.657 488.899 827.962 488.971C803.652 489.099 779.234 491.997 754.952 493.299C747.979 493.673 740.436 494.81 733.485 494.46C732.438 494.408 731.483 494.051 730.605 493.49Z"
     id="path53" />
  <path
     fill="#F46338"
     d="M103.028 434.293L103.443 434.532C107.361 436.835 110.915 439.741 114.715 442.235C121.904 446.953 129.487 450.441 137.545 453.378C159.94 461.543 286.185 490.865 293.648 498.884C290.912 499.405 263.766 494.211 258.233 493.603C233.313 490.866 208.175 491.557 183.187 492.745C175.433 493.114 166.981 492.939 159.403 494.67C153.89 494.737 147.326 486.985 143.524 483.266C129.411 469.46 112.269 451.637 103.028 434.293Z"
     id="path54" />
  <path
     fill="#1F98A5"
     d="M472.548 160.558C468.771 169.508 464.709 178.475 461.631 187.692C418.902 196.829 385.223 206.28 345.872 225.782C340.672 219.535 334.907 213.296 331.595 205.761C344.986 199.538 357.789 192.461 371.437 186.663C403.087 173.217 438.425 164.374 472.548 160.558Z"
     id="path55" />
  <path
     fill="#1F98A5"
     d="M551.547 159.781C562.506 162.176 573.834 162.804 584.842 165.132C625.146 173.656 666.832 188.636 702.052 210.206C694.988 214.645 688.964 219.905 683.017 225.708C675.122 221.963 667.371 217.767 659.347 214.314Q650.841 210.635 642.158 207.397Q633.475 204.158 624.637 201.37Q615.799 198.581 606.829 196.25Q597.86 193.918 588.783 192.05C580.086 190.348 571.211 189.262 562.444 187.98Q557.21 173.797 551.547 159.781Z"
     id="path56" />
  <path
     fill="#931D2D"
     d="M82.0064 385.119C82.1707 385.206 82.3362 385.29 82.4992 385.379C93.2312 391.252 102.117 401.137 114.352 407.444C122.519 411.654 131.037 415.331 139.535 418.811C155.512 425.354 256.558 465.181 266.627 463.826C275.918 466.584 284.679 470.5 293.565 474.316L293.437 490.803C250.489 473.717 203.883 466.122 161.281 448.267C133.645 436.685 93.6651 413.658 82.0064 385.119Z"
     id="path57" />
  <path
     fill="#F46338"
     d="M510.634 76.4984C512.054 84.6481 511.075 94.3181 511.042 102.631L511.029 151.024L511.145 205.168C511.249 216.575 512.254 228.353 510.835 239.679C505.915 233.475 500.42 227.592 495.206 221.63L465.981 188.241C472.276 175.533 476.656 162.042 481.937 148.904C491.623 124.804 501.516 100.825 510.634 76.4984Z"
     id="path58" />
  <path
     fill="#1F98A5"
     d="M397.006 573.013C406.348 573.023 415.659 572.558 424.987 572.491L424.997 614.169C451.502 614.069 478.183 613.433 504.673 614.205C504.969 621.677 505.308 629.338 504.704 636.796L504.397 638.992Q450.991 638.599 397.585 638.981L397.259 634.917C396.541 627.957 397.029 620.622 397.025 613.612L397.006 573.013Z"
     id="path59" />
  <path
     fill="#04495E"
     d="M397.259 634.917C407.846 632.928 424.253 633.486 435.508 633.29Q456.236 632.873 476.967 633C485.803 633.018 494.85 632.809 503.649 633.656C504.499 634.721 504.478 635.469 504.704 636.796L504.397 638.992Q450.991 638.599 397.585 638.981L397.259 634.917Z"
     id="path60" />
  <defs
     id="defs61">
    <linearGradient
       id="gradient_0"
       gradientUnits="userSpaceOnUse"
       x1="427.85413"
       y1="360.52173"
       x2="341.37469"
       y2="243.79384">
      <stop
         offset="0"
         stop-color="#A9C6B5"
         id="stop60" />
      <stop
         offset="1"
         stop-color="#C3C7B6"
         id="stop61" />
    </linearGradient>
  </defs>
  <path
     fill="url(#gradient_0)"
     d="M472.035 202.839C475.871 206.915 479.331 211.43 482.833 215.795C441.441 220.971 401.963 231.624 364.13 249.383C352.055 255.051 340.498 261.875 328.532 267.802C329.825 287.939 328.559 308.52 328.558 328.714L329.014 436.523Q323.31 433.663 317.573 430.867C318.849 427.448 318.011 277.213 317.93 260.396C354.239 240.37 383.99 225.427 424.225 214.085C439.775 209.701 456.052 207.733 471.441 203.026L472.035 202.839Z"
     id="path61" />
  <path
     fill="#931D2D"
     d="M510.634 76.4984C512.014 77.1159 512.371 78.0429 513.096 79.3709C518.553 89.3647 522.483 100.847 526.807 111.389C537.46 137.365 547.207 163.731 558.014 189.632Q536.102 215.871 512.017 240.129L511.207 240.125L510.835 239.679C512.254 228.353 511.249 216.575 511.145 205.168L511.029 151.024L511.042 102.631C511.075 94.3181 512.054 84.6481 510.634 76.4984Z"
     id="path62" />
  <path
     fill="#fbf7e1"
     d="m 511.2,279.51 c 16.84,6.238 33.121,13.912 50.071,19.821 14.871,5.185 30.59731,10.95987 45.17031,17.12787 10.42445,6.65791 13.70509,10.13463 22.82428,21.86656 9.54346,12.27775 15.14959,30.33567 17.69269,47.1088 2.67607,17.65012 1.10857,50.4288 -0.91294,57.35081 -1.60323,5.48974 -18.4679,53.63153 -27.10429,57.85269 -1.49856,0.73245 -13.85765,1.39187 -15.24665,-1.91929 -9.93339,-23.67975 -5.89066,-138.78239 -5.91267,-137.66244 -4.659,-3.828 -1.02373,-35.286 -6.32973,-38.207 -10.065,-5.541 -21.24,-9.327 -31.952,-13.425 -15.73267,-6.10133 -31.566,-11.92867 -47.5,-17.482 -20.56,7.223 -82.786,26.887 -92.878,44.966 -2.533,2.315 -4.861,4.721 -7.155,7.272 -8.053,5.156 -16.703,15.709 -18.879,25.162 -1.765,7.668 0.461,16.99 1.336,24.75 4.454,39.539 10.297,69.379 25.072,106.391 l -9.097,0.584 c -0.82,-1.53733 -1.61533,-3.087 -2.386,-4.649 -16.898,-34.249 -24.194,-68.787 -25.631,-106.83 -0.327,-8.664 -1.565,-18.687 1.416,-26.977 3.413,-9.493 11.433,-16.736 18.208,-23.883 7.827,-8.256 15.269,-17.825 24.584,-24.436 11.994,-8.512 26.577,-10.747 40.047,-15.85 15.04733,-5.85667 29.90167,-12.16733 44.563,-18.932 z"
     id="path63"
     sodipodi:nodetypes="cccssssscsccccscccscccccc" />
  <path
     fill="#FBF7E1"
     d="M462.255 192.758Q467.533 197.422 472.035 202.839L471.441 203.026C456.052 207.733 439.775 209.701 424.225 214.085C383.99 225.427 354.239 240.37 317.93 260.396C318.011 277.213 318.849 427.448 317.573 430.867Q309.825 427.5 301.91 424.549L301.919 256.017C318.357 246.852 334.274 236.965 351.085 228.447C385.233 211.146 424.491 198.556 462.255 192.758Z"
     id="path64" />
  <path
     fill="#1F98A5"
     d="M746.819 244.943C784.251 274.066 814.314 313.084 837.146 354.442C841.979 363.197 845.891 372.364 850.451 381.243C845.675 381.865 840.859 383.732 836.267 385.166L814.506 391.983C799.813 357.745 779.744 328.841 754.959 301.11C754.948 296.324 755.68 290.98 752.055 287.331C754.737 280.163 752.479 266.468 751.925 258.643C749.719 256.243 747.292 254.004 744.964 251.72L746.819 244.943Z"
     id="path65" />
  <path
     fill="#1F98A5"
     d="M177.447 385.714C180.238 375.811 185.244 366.745 189.917 357.623C211.154 316.164 244.991 269.269 283.03 241.838C284.825 251.683 289.894 261.835 293.279 271.3C277.723 284.903 269.824 294.901 257.155 311.068C234.726 339.689 220.89 361.378 205.938 394.816C196.292 392.07 186.861 389.17 177.447 385.714Z"
     id="path66" />
  <path
     fill="#F46338"
     d="M68.1863 304.5C71.6197 310.725 74.7817 317.133 78.138 323.406C83.3077 330.808 88.5893 337.807 94.9648 344.248C122.244 371.809 160.414 384.238 196.285 396.161C210.881 401.012 226.572 405.653 240.116 413.104C244.034 415.541 246.767 418.235 248.987 422.355C264.333 441.834 271.234 448.007 293.67 459.768L293.613 467.538Q260.074 453.021 225.724 440.542C191.134 427.889 153.109 416.26 122.405 395.491C89.2332 373.054 75.6123 342.425 68.1863 304.5Z"
     id="path67" />
  <path
     fill="#FFE497"
     d="M240.116 413.104C244.034 415.541 246.767 418.235 248.987 422.355C244.545 422.417 239.982 420.357 235.85 418.864C235.893 418.809 235.929 418.748 235.979 418.699C237.102 417.599 238.164 416.714 238.858 415.261C239.368 414.196 238.998 414.8 239.699 413.721C239.834 413.513 239.977 413.309 240.116 413.104Z"
     id="path68" />
  <path
     fill="#FEC185"
     d="M235.85 418.864C220.062 412.289 203.653 406.563 187.431 401.126C165.507 393.779 143.344 386.831 123.338 374.967C106.403 364.923 93.5496 352.188 82.8842 335.702C80.9938 332.78 78.0547 328.996 77.3315 325.542C77.1027 324.449 77.5502 324.286 78.138 323.406C83.3077 330.808 88.5893 337.807 94.9648 344.248C122.244 371.809 160.414 384.238 196.285 396.161C210.881 401.012 226.572 405.653 240.116 413.104C239.977 413.309 239.834 413.513 239.699 413.721C238.998 414.8 239.368 414.196 238.858 415.261C238.164 416.714 237.102 417.599 235.979 418.699C235.929 418.748 235.893 418.809 235.85 418.864Z"
     id="path69" />
  <path
     fill="#F46338"
     d="M341.232 273.678C374.537 255.348 407.173 241.772 444.11 232.448C456.915 229.215 469.645 226.265 482.837 225.209Q482.648 235.759 482.8 246.31C438.822 251.818 400.629 267.364 361.003 286.52L360.503 453.044C354.092 450.196 347.712 447.416 341.388 444.37C340.276 387.507 341.96 330.553 341.232 273.678Z"
     id="path70" />
  <path
     fill="#F46338"
     d="M957.257 305.363C951.521 331.995 938.743 360.934 919.765 380.813C913.121 387.772 905.335 393.685 897.276 398.917C859.982 423.129 803.843 441.475 761.557 456.938Q753.654 459.768 745.828 462.804C741.266 464.606 736.345 467.163 731.536 468.032L730.597 467.746C730.45 466.399 730.613 465.803 731.495 464.727C737.289 457.669 750.073 447.63 757.278 441.327C761.85 437.327 766.742 432.161 771.784 428.829C775.825 424.654 780.496 421.005 784.822 417.122C790.262 412.241 795.625 406.102 801.906 402.387C811.82 396.521 824.392 393.932 835.351 390.493C870.344 379.512 903.225 368.717 931.082 343.928C937.069 337.024 942.507 329.815 947.871 322.422C951.146 316.801 954.105 311.046 957.257 305.363Z"
     id="path71" />
  <path
     fill="#FEC185"
     d="M947.871 322.422C948.429 323.199 948.914 323.435 948.775 324.427C948.129 329.039 938.729 342.926 935.212 346.043C935.515 344.943 935.739 343.862 935.934 342.738L935.433 342.258C933.995 342.906 932.582 343.442 931.082 343.928C937.069 337.024 942.507 329.815 947.871 322.422Z"
     id="path72" />
  <defs
     id="defs73">
    <linearGradient
       id="gradient_1"
       gradientUnits="userSpaceOnUse"
       x1="839.96515"
       y1="368.97415"
       x2="870.68549"
       y2="403.9762">
      <stop
         offset="0"
         stop-color="#FF994F"
         id="stop72" />
      <stop
         offset="1"
         stop-color="#FCB878"
         id="stop73" />
    </linearGradient>
  </defs>
  <path
     fill="url(#gradient_1)"
     d="M931.082 343.928C932.582 343.442 933.995 342.906 935.433 342.258L935.934 342.738C935.739 343.862 935.515 344.943 935.212 346.043C928.436 356.691 918.034 364.444 907.324 370.824C891.07 380.505 872.744 387.163 855.2 394.087Q830.945 403.766 806.938 414.046C799.279 417.37 780.843 427.863 774.363 429.213C773.377 429.418 772.673 429.247 771.784 428.829C775.825 424.654 780.496 421.005 784.822 417.122C790.262 412.241 795.625 406.102 801.906 402.387C811.82 396.521 824.392 393.932 835.351 390.493C870.344 379.512 903.225 368.717 931.082 343.928Z"
     id="path73" />
  <path
     fill="#FBF7E1"
     d="M737.639 702.806C740.9 703.866 744.058 705.069 747.23 706.372Q747.018 736.867 747.567 767.358C727.677 783.845 704.797 797.048 683.399 811.47L572.61 886.338C552.326 900.027 531.356 913.085 511.723 927.666C502.894 923.502 493.77 915.79 485.64 910.147L442.515 880.817L344.443 813.931Q310.752 790.404 277.527 766.224L277.563 710.653C281.98 709.801 286.48 709.301 290.937 708.7C293.038 721.343 292.624 746.335 290.929 759.161C296.201 763.399 302.106 767.03 307.689 770.854Q320.958 779.913 333.927 789.396Q403.623 841.196 475.286 890.241Q482.261 894.998 489.019 900.058C496.079 905.403 504.417 913.399 512.686 916.593C523.257 907.98 534.739 900.692 546.068 893.139L588.183 864.912L737.963 764.176C737.045 743.764 737.486 723.235 737.639 702.806Z"
     id="path74" />
  <path
     fill="#FBF7E1"
     d="M270.944 525.653C282.115 524.401 293.224 522.563 304.417 521.348Q342.334 517.058 380.472 515.784L380.341 547.844C367.964 548.452 355.588 549.402 343.222 550.213L343.068 610.681C343.088 622.181 343.921 634.381 342.731 645.794C341.78 647.022 340.991 647.065 339.543 647.556C338.798 645.945 338.989 643.947 338.974 642.191C333.893 642.519 328.229 643.157 323.205 642.194C318.425 643.446 313.358 644.632 308.455 645.273L308.586 650.86C307.238 650.764 306.029 650.815 304.897 649.981C303.058 643.058 304.486 624.342 304.5 616.252Q304.607 585.781 304.11 555.313C293.04 556.234 281.962 558.088 270.981 559.754L270.944 525.653Z"
     id="path75" />
  <path
     fill="#1F98A5"
     d="M308.484 581.029C318.743 580.753 328.804 578.722 338.987 578.351L338.974 642.191C333.893 642.519 328.229 643.157 323.205 642.194C318.425 643.446 313.358 644.632 308.455 645.273L308.432 641.754Q308.658 611.392 308.484 581.029Z"
     id="path76" />
  <path
     fill="#04495e"
     d="m 338.794,637.108 c -0.18924,2.80061 1.63614,5.52054 -2.36391,5.086 -4.78,1.252 -23.07209,2.438 -27.97509,3.079 l -0.023,-3.519 c 10.117,-2.029 20.01,-4.214 30.362,-4.646 z"
     id="path77"
     sodipodi:nodetypes="ccccc" />
  <path
     fill="#931D2D"
     d="M541.023 225.313C554.384 226.766 567.436 229.605 580.489 232.739C617.631 241.656 651.649 254.846 684.538 274.3C684.106 301.082 684.489 327.931 684.487 354.72L684.523 502.583Q674.385 501.669 664.23 500.971C664.65 476.473 664.387 451.93 664.408 427.427L664.556 286.507C654.193 282.037 644.331 276.345 633.933 271.878Q622.801 267.172 611.385 263.208Q599.968 259.244 588.315 256.039Q576.662 252.834 564.824 250.402Q552.986 247.97 541.013 246.321L541.023 225.313Z"
     id="path78" />
  <path
     fill="#64D0D0"
     d="M541.892 215.953Q548.023 208.789 554.396 201.84L554.89 201.96C566.694 204.736 578.946 205.953 590.835 208.642C617.689 214.716 643.819 224.615 668.819 236.063C683.585 242.823 710.449 260.353 725.67 258.877C723.59 264.745 724.519 309.869 724.515 318.701L724.518 426.015Q709.911 432.393 695.479 439.158L695.643 268.044C657.75 243.093 612.327 227.82 567.929 219.707C559.314 218.133 550.571 217.129 541.892 215.953Z"
     id="path79" />
  <path
     fill="#1F98A5"
     d="M259.446 528.61L259.504 534.925C259.606 549.825 260.005 564.73 260.02 579.628C265.618 579.24 271.243 578.731 276.848 578.49C277.702 603.843 276.988 629.393 277.022 654.769C265.598 656.94 254.132 659.031 242.87 661.951C234.494 664.122 225.617 668.705 216.957 669.083L204.002 674.059L203.975 540.854C222.445 536.3 240.813 532.421 259.446 528.61Z"
     id="path80" />
  <path
     fill="#FBF7E1"
     d="M259.446 528.61L259.504 534.925C242.555 536.939 225.53 541.106 208.992 545.287Q209.262 605.761 208.555 666.231C223.588 660.548 238.656 654.775 254.419 651.441C242.401 658.005 228.184 661.411 216.957 669.083L204.002 674.059L203.975 540.854C222.445 536.3 240.813 532.421 259.446 528.61Z"
     id="path81" />
  <path
     fill="#F46338"
     d="M343.508 703.891C350.348 703.873 357.221 703.711 364.057 703.873C364.051 710.196 363.873 716.593 364.211 722.904C371.347 729.95 380.187 735.152 388.478 740.731L388.476 704.058C395.759 704.72 403.038 705.431 410.232 706.773L410.195 753.402C418.791 759.526 427.465 765.697 436.48 771.189C436.552 750.487 437.111 729.626 436.447 708.941C441.274 709.142 452.508 708.85 456.371 710.43L456.673 711.336C456.439 735.559 456.143 759.9 456.593 784.116C465.302 790.142 474.598 795.869 482.969 802.334L483.39 711.899C492.771 711.684 502.067 711.627 511.445 712.032C512.373 730.585 511.757 749.268 511.77 767.845C511.786 792.977 512.184 818.127 511.986 843.255C504.78 838.862 498.202 833.486 491.315 828.616C479.386 820.181 467.261 812.004 455.201 803.757C417.72 778.128 379.838 753.224 343.488 725.976L343.508 703.891Z"
     id="path82" />
  <path
     fill="#1F98A5"
     d="M119.861 627.015L170.544 627.097C179.225 627.128 188.074 627.531 196.738 627.072L197.534 626.074C196.74 633.312 197.013 640.794 196.994 648.077Q196.922 668.287 197.391 688.491Q216.002 703.818 233.7 720.19C242.028 727.817 250.466 735.302 257.921 743.806Q223.516 744.191 189.11 744.021L98.9788 744.005Q116.176 721.582 133.81 699.501C139.853 692.026 146.706 684.88 152.376 677.159C155.877 679.55 159.739 679.382 163.824 679.606L164.114 679.019C148.866 666.806 131.817 643.18 119.861 627.015Z"
     id="path83" />
  <path
     fill="#04495E"
     d="M164.114 679.019C165.855 678.557 166.236 678.946 167.81 679.844C174.889 683.882 181.462 690.094 187.734 695.319Q208.039 712.398 227.914 729.976L124.416 730.513L151.789 695.656C155.771 690.534 160.588 685.202 163.824 679.606L164.114 679.019Z"
     id="path84" />
  <path
     fill="#1F98A5"
     d="M826.373 628.015C851.841 627.463 877.846 626.516 903.281 628.052C897.976 634.504 864.448 675.483 863.514 679.388L863.768 680.777C864.791 681.471 865.118 681.638 866.426 681.278C868.349 680.749 870.057 678.696 871.435 677.325C875.782 685.226 884.814 693.823 890.795 700.969Q908.764 722.144 925.629 744.208C905.295 744.927 884.82 744.544 864.472 744.443L769.88 744.008C774.472 737.744 779.751 731.858 784.736 725.896Q796.699 711.544 808.827 697.332C814.772 690.461 821.236 683.931 826.425 676.449C825.747 660.394 826.337 644.097 826.373 628.015Z"
     id="path85" />
  <path
     fill="#04495E"
     d="M835.073 688.036L861.657 688.011C871.171 694.84 893.069 723.366 902.051 733.975L862.107 734.212L794.26 733.969L835.073 688.036Z"
     id="path86" />
  <path
     fill="#FEC185"
     d="M290.937 708.7C303.374 706.545 315.872 704.627 328.514 704.422L328.515 736.705Q386.236 776.888 444.818 815.808C467.286 830.926 490.111 845.72 511.914 861.782C512.987 873.95 512.52 886.171 512.352 898.369C512.271 904.268 511.732 910.775 512.686 916.593C504.417 913.399 496.079 905.403 489.019 900.058Q482.261 894.998 475.286 890.241Q403.623 841.196 333.927 789.396Q320.958 779.913 307.689 770.854C302.106 767.03 296.201 763.399 290.929 759.161C292.624 746.335 293.038 721.343 290.937 708.7Z"
     id="path87" />
  <path
     fill="#F46338"
     d="M696.88 692.172L737.554 702.353L737.639 702.806C737.486 723.235 737.045 743.764 737.963 764.176L588.183 864.912L546.068 893.139C534.739 900.692 523.257 907.98 512.686 916.593C511.732 910.775 512.271 904.268 512.352 898.369C512.52 886.171 512.987 873.95 511.914 861.782C520.482 856.509 528.778 850.64 537.132 845.027Q564.955 826.431 592.35 807.209Q644.379 771.337 696.909 736.206L696.88 692.172Z"
     id="path88" />
  <path
     fill="#931D2D"
     d="M483.475 666.509C502.437 666.502 521.778 667.244 540.696 666.193Q540.174 735.56 541.029 804.922L565.043 788.69L565.476 666.509L588.031 666.478L588.06 772.525C596.066 766.848 603.935 760.906 612.678 756.398C611.958 745.916 612.506 735.548 612.537 725.058L612.541 666.511L635.046 666.478Q634.798 704.469 634.964 742.46C643.651 736.808 652.304 731.129 661.208 725.82C660.281 706.317 661.02 686.509 661.007 666.973Q671.496 667.359 681.992 667.479C681.94 687.222 682.616 707.244 681.818 726.95L571.678 803.236Q551.482 817.255 531.101 831.003C524.852 835.147 518.565 839.673 511.986 843.255C512.184 818.127 511.786 792.977 511.77 767.845C511.757 749.268 512.373 730.585 511.445 712.032C502.067 711.627 492.771 711.684 483.39 711.899L483.475 666.509Z"
     id="path89" />
  <path
     fill="#F46338"
     d="M419.122 336.908C429.214 318.829 491.44 299.165 512 291.942C511.661 316.148 511.943 340.391 511.975 364.601C511.993 377.477 512.712 390.715 511.305 403.52L511.003 404.125C503.808 418.239 477.177 435.251 482.268 452.124C485.765 463.713 503.903 477.134 511.841 487.42Q512.088 494.087 512.051 500.759L508.006 501.69C492.167 503.2 477.465 505.119 461.444 505.118C456.848 505.117 452.017 505.312 447.484 504.456L443.431 501.196C435.447 500.604 427.5 500.509 419.496 500.483C404.721 463.471 398.878 433.631 394.424 394.092C393.549 386.332 391.323 377.01 393.088 369.342C395.264 359.889 403.914 349.336 411.967 344.18C414.261 341.629 416.589 339.223 419.122 336.908Z"
     id="path90" />
  <path
     fill="#931D2D"
     d="M455.89 428.047C460.64 433.292 462.437 440.421 462.042 447.376C461.671 453.923 459.089 460.103 454.084 464.45C449.627 468.321 443.991 470.142 438.112 469.709C432.652 469.306 426.533 466.611 422.889 462.388C422.706 462.175 422.531 461.955 422.352 461.739C427.845 462.866 432.867 463.863 438.488 462.748C444.75 461.507 450.265 457.998 453.683 452.555C458.645 444.653 457.688 436.656 455.89 428.047Z"
     id="path91" />
  <path
     fill="#931D2D"
     d="M454.865 342.952C459.477 345.772 462.469 349.873 463.83 355.129C465.665 362.219 464.675 370.443 460.944 376.759C457.652 382.332 452.401 386.444 446.112 388.064C440.172 389.594 434.23 388.825 429.044 385.527C427.051 384.26 425.448 382.836 424.037 380.946C430.769 382.999 437.356 383.649 444.105 381.058C450.12 378.749 455.06 374.168 457.517 368.183C461.304 358.958 458.36 351.476 454.865 342.952Z"
     id="path92" />
  <path
     fill="#04495E"
     d="M422.352 461.739C420.239 459.879 418.118 458.065 416.318 455.889C411.329 449.857 408.467 442.46 409.428 434.531C410.206 428.111 413.68 422.5 418.868 418.682Q419.342 418.33 419.832 418.002Q420.323 417.674 420.829 417.371Q421.336 417.069 421.857 416.792Q422.378 416.515 422.912 416.264Q423.446 416.014 423.993 415.79Q424.539 415.567 425.095 415.372Q425.652 415.176 426.218 415.009Q426.784 414.841 427.357 414.702Q427.931 414.564 428.511 414.454Q429.09 414.344 429.675 414.263Q430.26 414.183 430.847 414.132Q431.435 414.081 432.025 414.059Q432.615 414.038 433.205 414.046Q433.795 414.054 434.384 414.092Q434.972 414.13 435.559 414.197Q436.145 414.264 436.727 414.361C445.373 415.76 451.006 421.285 455.89 428.047C457.688 436.656 458.645 444.653 453.683 452.555C450.265 457.998 444.75 461.507 438.488 462.748C432.867 463.863 427.845 462.866 422.352 461.739Z"
     id="path93" />
  <path
     fill="#FBF7E1"
     d="M414.904 445.574C413.753 441.642 413.13 438.071 413.817 433.949C414.614 429.171 417.175 424.888 421.138 422.075C426.127 418.535 431.598 418.146 437.438 419.046C432.191 422.11 427.283 425.855 423.493 430.657C420.6 434.323 417.573 443.188 416.344 444.648C416.127 444.906 415.229 445.415 414.904 445.574Z"
     id="path94" />
  <path
     fill="#64D0D0"
     d="M437.438 419.046C442.307 419.839 447.726 423.435 450.483 427.452Q450.759 427.859 451.014 428.281Q451.269 428.701 451.502 429.135Q451.735 429.568 451.946 430.013Q452.157 430.457 452.345 430.912Q452.534 431.367 452.699 431.831Q452.864 432.294 453.005 432.766Q453.146 433.237 453.263 433.715Q453.38 434.193 453.473 434.677Q453.566 435.16 453.634 435.647Q453.702 436.135 453.746 436.625Q453.789 437.115 453.808 437.607Q453.826 438.099 453.82 438.591Q453.813 439.083 453.782 439.574Q453.751 440.065 453.694 440.554Q453.638 441.043 453.557 441.529Q453.476 442.014 453.371 442.495Q453.261 443.023 453.124 443.544Q452.988 444.065 452.825 444.579Q452.663 445.093 452.474 445.598Q452.286 446.103 452.073 446.598Q451.86 447.093 451.622 447.576Q451.385 448.06 451.123 448.531Q450.861 449.002 450.577 449.46Q450.292 449.917 449.984 450.36Q449.677 450.803 449.347 451.229Q449.018 451.656 448.668 452.065Q448.318 452.475 447.947 452.866Q447.577 453.258 447.187 453.63Q446.798 454.003 446.39 454.355Q445.982 454.708 445.558 455.039Q445.133 455.371 444.692 455.681Q444.251 455.991 443.795 456.278Q443.372 456.537 442.937 456.773Q442.502 457.01 442.055 457.225Q441.608 457.439 441.151 457.63Q440.694 457.822 440.227 457.989Q439.761 458.157 439.287 458.301Q438.813 458.445 438.332 458.565Q437.851 458.684 437.364 458.78Q436.878 458.875 436.387 458.945Q435.897 459.015 435.403 459.06Q434.91 459.105 434.414 459.125Q433.919 459.145 433.424 459.14Q432.928 459.135 432.434 459.104Q431.939 459.074 431.446 459.019Q430.954 458.963 430.465 458.883Q429.976 458.802 429.492 458.697Q429.007 458.592 428.529 458.462C423.116 457.038 419.233 453.8 416.405 448.983C415.833 448.007 415.143 446.69 414.904 445.574C415.229 445.415 416.127 444.906 416.344 444.648C417.573 443.188 420.6 434.323 423.493 430.657C427.283 425.855 432.191 422.11 437.438 419.046Z"
     id="path95" />
  <path
     fill="#04495E"
     d="M419.122 336.908C426.416 333.82 434.453 330.324 442.327 333.632C447.65 335.868 450.443 339.713 454.865 342.952C458.36 351.476 461.304 358.958 457.517 368.183C455.06 374.168 450.12 378.749 444.105 381.058C437.356 383.649 430.769 382.999 424.037 380.946C419.651 377.769 415.647 374.013 413.036 369.211C408.571 361 409.289 352.747 411.967 344.18C414.261 341.629 416.589 339.223 419.122 336.908Z"
     id="path96" />
  <path
     fill="#FBF7E1"
     d="M416.106 365.565C416.035 365.37 415.963 365.176 415.894 364.98C413.804 359.006 413.379 352.692 416.277 346.878Q416.493 346.445 416.73 346.024Q416.968 345.603 417.226 345.194Q417.485 344.786 417.763 344.391Q418.042 343.996 418.341 343.616Q418.64 343.236 418.957 342.871Q419.275 342.507 419.611 342.159Q419.946 341.811 420.299 341.481Q420.652 341.15 421.021 340.838Q421.391 340.526 421.775 340.233Q422.16 339.94 422.559 339.667Q422.958 339.395 423.37 339.142Q423.783 338.89 424.207 338.659Q424.632 338.428 425.068 338.219Q425.504 338.01 425.95 337.823Q426.396 337.636 426.851 337.472Q427.305 337.309 427.768 337.168C433.807 335.332 438.976 336.827 444.331 339.681C441.329 340.894 438.723 341.801 436.388 344.132C432.219 352.355 428.93 359.612 420.139 363.832Q418.133 364.723 416.106 365.565Z"
     id="path97" />
  <path
     fill="#B9EBE6"
     d="M420.139 363.832C419.994 362.19 419.95 360.975 420.556 359.423C423.048 353.047 430.208 346.833 436.388 344.132C432.219 352.355 428.93 359.612 420.139 363.832Z"
     id="path98" />
  <path
     fill="#64D0D0"
     d="M444.331 339.681C449.815 343.765 453.991 348.21 455.053 355.29Q455.131 355.783 455.184 356.28Q455.237 356.776 455.264 357.275Q455.292 357.773 455.294 358.273Q455.297 358.772 455.274 359.271Q455.251 359.77 455.203 360.267Q455.155 360.764 455.082 361.258Q455.009 361.752 454.911 362.241Q454.813 362.731 454.691 363.215Q454.568 363.699 454.421 364.177Q454.274 364.654 454.104 365.123Q453.933 365.592 453.738 366.052Q453.544 366.512 453.327 366.962Q453.109 367.411 452.87 367.849Q452.63 368.287 452.368 368.713Q452.107 369.138 451.824 369.55Q451.541 369.961 451.238 370.358Q450.903 370.787 450.548 371.198Q450.192 371.61 449.816 372.003Q449.44 372.396 449.044 372.77Q448.649 373.144 448.235 373.497Q447.822 373.85 447.391 374.182Q446.96 374.514 446.512 374.824Q446.065 375.134 445.603 375.42Q445.141 375.707 444.665 375.971Q444.189 376.234 443.7 376.473Q443.211 376.711 442.711 376.925Q442.211 377.139 441.7 377.328Q441.19 377.516 440.671 377.679Q440.152 377.841 439.625 377.977Q439.098 378.113 438.566 378.223Q438.033 378.332 437.495 378.414Q436.957 378.497 436.416 378.552Q435.927 378.602 435.437 378.626Q434.946 378.65 434.455 378.649Q433.964 378.648 433.474 378.621Q432.983 378.594 432.495 378.542Q432.007 378.49 431.522 378.413Q431.037 378.335 430.557 378.233Q430.076 378.131 429.602 378.004Q429.127 377.877 428.66 377.725Q428.193 377.574 427.734 377.398Q427.276 377.223 426.827 377.024Q426.378 376.825 425.94 376.603Q425.502 376.381 425.076 376.137Q424.65 375.892 424.237 375.626Q423.824 375.36 423.426 375.073Q423.028 374.786 422.645 374.478Q422.262 374.171 421.895 373.844C419.346 371.576 417.479 368.67 416.106 365.565Q418.133 364.723 420.139 363.832C428.93 359.612 432.219 352.355 436.388 344.132C438.723 341.801 441.329 340.894 444.331 339.681Z"
     id="path99" />
  <path
     fill="#931D2D"
     d="M512 291.942Q535.901 300.272 559.5 309.424C570.212 313.522 581.387 317.308 591.452 322.849C596.758 325.77 601.361 329.396 606.02 333.224C610.476 337.311 614.895 341.147 618.702 345.9C630.687 360.864 635.629 381.689 636.416 400.489C637.875 435.321 629.719 473.241 606.923 500.524L548.042 500.221C536.033 500.175 524.024 499.588 512.051 500.759Q512.088 494.087 511.841 487.42C503.903 477.134 485.765 463.713 482.268 452.124C477.177 435.251 503.808 418.239 511.003 404.125L511.305 403.52C512.712 390.715 511.993 377.477 511.975 364.601C511.943 340.391 511.661 316.148 512 291.942Z"
     id="path100" />
  <path
     fill="#04495E"
     d="M593.604 333.647C598.26 333.321 602.734 333.848 606.906 336.061C612.712 339.139 616.37 344.82 618.163 351.006C620.181 357.965 619.469 365.217 615.823 371.528C611.533 378.955 604.808 382.355 596.905 384.528C591.292 384.635 586.203 383.951 581.345 380.9C575.421 377.178 571.472 371.027 570.032 364.237Q569.901 363.616 569.802 362.99Q569.702 362.363 569.634 361.732Q569.566 361.101 569.53 360.468Q569.494 359.834 569.489 359.2Q569.484 358.566 569.511 357.932Q569.538 357.298 569.597 356.666Q569.656 356.034 569.746 355.406Q569.837 354.778 569.958 354.156Q570.08 353.533 570.233 352.917Q570.385 352.301 570.568 351.694Q570.752 351.086 570.965 350.489Q571.178 349.891 571.422 349.305Q571.665 348.719 571.937 348.146Q572.209 347.573 572.509 347.014Q572.809 346.455 573.137 345.912Q573.465 345.369 573.82 344.843C578.593 337.74 585.582 335.144 593.604 333.647Z"
     id="path101" />
  <path
     fill="#64D0D0"
     d="M574.59 362.403C573.995 356.489 574.811 350.803 578.351 345.876C582.433 340.192 588.152 338.247 594.73 337.16C601.573 338.245 607.657 340.928 611.793 346.748C614.946 351.185 616.337 357.165 615.213 362.516C614.034 368.133 610.064 373.25 605.286 376.321C600.571 379.352 594.584 380.754 589.086 379.318C583.839 377.947 579.867 374.226 577.305 369.542C576.073 367.29 575.313 364.852 574.59 362.403Z"
     id="path102" />
  <path
     fill="#FBF7E1"
     d="M574.59 362.403C573.995 356.489 574.811 350.803 578.351 345.876C582.433 340.192 588.152 338.247 594.73 337.16C595.251 340.294 595.539 343.303 595.639 346.479C590.71 346.562 587.448 348.171 583.997 351.751C581.936 353.889 576.626 361.909 574.59 362.403Z"
     id="path103" />
  <path
     fill="#04495E"
     d="M590.602 413.104Q591.496 413.004 592.396 412.962Q593.295 412.921 594.195 412.938Q595.095 412.956 595.992 413.033Q596.888 413.109 597.778 413.245Q598.668 413.38 599.547 413.574Q600.426 413.767 601.291 414.018Q602.155 414.269 603.002 414.576Q603.848 414.883 604.672 415.245Q605.267 415.502 605.847 415.789Q606.428 416.076 606.993 416.392Q607.558 416.708 608.106 417.053Q608.654 417.398 609.184 417.771Q609.714 418.143 610.224 418.542Q610.734 418.941 611.223 419.366Q611.712 419.79 612.179 420.24Q612.645 420.689 613.088 421.161Q613.531 421.634 613.95 422.128Q614.368 422.623 614.76 423.138Q615.153 423.653 615.518 424.188Q615.884 424.722 616.221 425.275Q616.559 425.828 616.868 426.397Q617.177 426.966 617.456 427.55Q617.736 428.135 617.985 428.732Q618.234 429.33 618.452 429.94C620.837 436.511 620.239 443.63 617.118 449.851C613.193 457.673 607.111 460.999 599.231 463.724C593.439 464.503 587.44 463.552 582.378 460.567C576.301 456.984 572.16 451.078 570.518 444.252C568.86 437.358 569.906 430.13 573.72 424.117C577.771 417.73 583.488 414.83 590.602 413.104Z"
     id="path104" />
  <path
     fill="#FBF7E1"
     d="M574.986 443.429C574.552 442.068 574.32 440.661 574.154 439.244Q574.103 438.786 574.074 438.326Q574.046 437.865 574.041 437.404Q574.036 436.943 574.054 436.483Q574.071 436.022 574.112 435.563Q574.153 435.103 574.217 434.647Q574.281 434.19 574.368 433.737Q574.455 433.284 574.564 432.837Q574.674 432.389 574.805 431.947Q574.937 431.505 575.091 431.07Q575.245 430.636 575.42 430.209Q575.595 429.783 575.792 429.366Q575.988 428.948 576.205 428.542Q576.423 428.135 576.66 427.74Q576.897 427.344 577.154 426.961Q577.411 426.578 577.686 426.209Q577.962 425.839 578.256 425.484C582.606 420.128 588.521 417.953 595.164 417.225C596.006 419.874 596.418 422.422 596.793 425.166C590.437 428.282 584.691 431.459 580.277 437.146C578.757 439.105 577.531 442.894 574.986 443.429Z"
     id="path105" />
  <path
     fill="#64D0D0"
     d="M595.164 417.225C601.831 418.421 607.679 420.895 611.588 426.735C614.724 431.419 616.061 437.438 614.795 442.968Q614.67 443.498 614.519 444.022Q614.369 444.546 614.192 445.061Q614.016 445.577 613.815 446.083Q613.614 446.589 613.388 447.085Q613.162 447.581 612.913 448.066Q612.663 448.55 612.39 449.021Q612.117 449.493 611.821 449.95Q611.525 450.408 611.207 450.85Q610.889 451.293 610.55 451.719Q610.211 452.146 609.852 452.555Q609.492 452.964 609.113 453.356Q608.734 453.747 608.336 454.119Q607.938 454.491 607.522 454.844Q607.107 455.196 606.674 455.528Q606.242 455.859 605.794 456.169Q605.346 456.479 604.883 456.767C600.481 459.478 595.314 460.297 590.321 458.902C584.765 457.35 579.513 453.451 576.783 448.327C575.952 446.768 575.342 445.156 574.986 443.429C577.531 442.894 578.757 439.105 580.277 437.146C584.691 431.459 590.437 428.282 596.793 425.166C596.418 422.422 596.006 419.874 595.164 417.225Z"
     id="path106" />
  <path
     fill="#04495E"
     d="M511.305 403.52C513.242 404.257 515.506 408.909 516.87 410.639C523.989 419.665 535.845 428.737 540.598 439.01C542.744 443.649 543.089 448.705 541.129 453.471C537.39 462.563 525.788 472.569 518.946 479.717C516.551 482.219 514.325 485.027 511.841 487.42C503.903 477.134 485.765 463.713 482.268 452.124C477.177 435.251 503.808 418.239 511.003 404.125L511.305 403.52Z"
     id="path107" />
  <path
     fill="#FBF7E1"
     d="M510.694 414.617C511.539 425.159 511.135 436.035 511.187 446.62C511.238 457.103 511.798 468.077 510.82 478.502L507.504 475.321C500.48 468.577 485.84 457.317 485.939 446.999C486.036 436.943 503.785 421.715 510.694 414.617Z"
     id="path108" />
  <path
     fill="#1F98A5"
     d="M510.694 414.617L511.473 414.207C517.048 417.041 535.49 436.703 537.25 442.571C538.426 446.493 537.667 450.266 535.646 453.759C533.416 457.613 515.11 477.683 511.575 478.681C511.431 478.721 511.278 478.725 511.129 478.747L510.82 478.502C511.798 468.077 511.238 457.103 511.187 446.62C511.135 436.035 511.539 425.159 510.694 414.617Z"
     id="path109" />
  <path
     fill="#FBF7E1"
     d="M517.479 514.001Q556.613 513.558 595.747 513.996L652.441 570.54L652.477 514.988C678.725 516.286 705.721 517.101 731.52 522.233C739.101 530.399 745.528 539.495 752.231 548.373C758.435 556.591 764.895 564.707 770.646 573.251Q754.724 587.682 739.404 602.749Q759.861 630.742 781.342 657.957C766.15 655.018 751.107 652.735 735.758 650.779C719.573 635.372 704.818 618.652 689.101 602.791L689.1 646.047Q671.042 644.901 652.952 644.498L652.542 582.75C646.904 588.109 641.885 594.378 636.492 600.02C629.172 607.68 621.436 614.935 614.051 622.535C608.79 627.95 598.303 640.211 591.641 643.429C581.552 642.108 571.251 643.341 561.125 643.387C547.36 643.45 533.189 641.931 519.497 643.777C519.318 643.625 519.129 643.484 518.96 643.322C517.924 642.326 517.671 641.538 517.554 640.12C516.445 626.648 517.761 612.459 517.752 598.908Q517.336 556.454 517.479 514.001Z"
     id="path110" />
  <path
     fill="#04495E"
     d="M689.577 552.999C698.673 553.255 707.757 553.89 716.671 555.784Q722.725 562.11 728.056 569.056L724.699 574.646L722.264 578.304C711.699 576.145 700.655 575.507 689.932 574.427L689.577 552.999Z"
     id="path111" />
  <path
     fill="#04495E"
     d="M556.392 548.498Q569.429 548.528 582.463 548.767L610.056 575.774Q600.321 584.183 590.814 592.848C583.674 599.084 576.615 605.216 568.834 610.65C564.667 610.833 560.453 610.718 556.28 610.728L556.392 548.498Z"
     id="path112" />
  <path
     fill="#1F98A5"
     d="M656.044 575.42C678.857 577.194 701.477 579.309 724.229 581.701L727.467 578.078Q739.758 581.107 751.525 585.776Q743.09 594.111 734.902 602.689C747.005 620.052 760.552 636.64 773.696 653.218C765.483 651.714 757.253 650.016 748.937 649.196L736.743 647.728C729.325 641.094 722.469 633.227 715.677 625.945Q701.306 610.233 686.139 595.288Q685.866 618.901 685.99 642.514Q670.946 642.159 655.949 640.932L656.044 575.42Z"
     id="path113" />
  <path
     fill="#1F98A5"
     d="M521.491 572.012L552.453 572.243L552.472 615.017Q560.833 614.752 569.198 614.713C583.703 603.464 603.691 588.186 615.625 574.545C623.118 574.446 645.727 574.352 652.024 575.86C652.343 577.081 652.151 577.804 651.548 578.9C647.745 585.809 638.473 593.372 632.788 598.982C620.969 610.646 608.471 622.194 597.469 634.617L593.085 638.996C592.574 640.467 592.032 641.922 591.641 643.429C581.552 642.108 571.251 643.341 561.125 643.387C547.36 643.45 533.189 641.931 519.497 643.777C519.569 643.559 519.639 643.34 519.715 643.123C522.736 634.502 520.849 623.908 521.411 614.8L521.491 572.012Z"
     id="path114" />
  <path
     fill="#04495E"
     d="M519.497 643.777C519.569 643.559 519.639 643.34 519.715 643.123C522.736 634.502 520.849 623.908 521.411 614.8C521.739 621.162 521.776 627.68 521.424 634.042C531.289 633.897 592.339 631.954 597.469 634.617L593.085 638.996C592.574 640.467 592.032 641.922 591.641 643.429C581.552 642.108 571.251 643.341 561.125 643.387C547.36 643.45 533.189 641.931 519.497 643.777Z"
     id="path115" />
  <path
     fill="#64D0D0"
     d="M519.497 643.777C519.569 643.559 519.639 643.34 519.715 643.123C522.736 634.502 520.849 623.908 521.411 614.8C521.739 621.162 521.776 627.68 521.424 634.042C521.428 635.639 521.213 637.323 522.049 638.744C528.456 640.698 546.786 639.251 554.247 639.167L593.085 638.996C592.574 640.467 592.032 641.922 591.641 643.429C581.552 642.108 571.251 643.341 561.125 643.387C547.36 643.45 533.189 641.931 519.497 643.777Z"
     id="path116" />
</svg>
